<svg width="114" height="26" viewBox="0 0 114 26" fill="none" xmlns="http://www.w3.org/2000/svg">
<g clip-path="url(#clip0_13_7237)">
<path d="M82.5013 16.5928C82.4817 14.52 81.757 12.5143 80.4443 10.8995C79.1317 9.28465 77.3076 8.15499 75.2667 7.69291C73.2257 7.23083 71.087 7.46328 69.196 8.35275C67.3049 9.24221 65.7718 10.7368 64.8442 12.5951C63.9166 14.4534 63.6487 16.567 64.0838 18.5946C64.5188 20.6222 65.6314 22.4455 67.2419 23.77C68.8523 25.0945 70.8667 25.8429 72.9597 25.8945C75.0526 25.946 77.1021 25.2976 78.7771 24.054V25.8976H82.5092V16.5928H82.5013ZM73.1987 22.2182C72.1088 22.2169 71.0432 21.8991 70.1339 21.3041C69.2246 20.7091 68.5116 19.8631 68.0832 18.8709C67.6548 17.8786 67.5298 16.7837 67.7237 15.7219C67.9176 14.66 68.4219 13.6777 69.1741 12.8968C69.9263 12.1159 70.8934 11.5706 71.9555 11.3285C73.0177 11.0864 74.1282 11.1581 75.1496 11.5348C76.1709 11.9114 77.0583 12.5765 77.7016 13.4475C78.345 14.3186 78.7162 15.3574 78.7691 16.4352V16.9316C78.7095 18.3543 78.0964 19.6991 77.0582 20.6845C76.0199 21.6698 74.6369 22.2194 73.1987 22.2182Z" fill="#87009B"/>
<path d="M94.0321 7.47705C92.8108 7.47705 91.6015 7.71534 90.4733 8.1783C89.3451 8.64125 88.3201 9.31981 87.4569 10.1752C86.5938 11.0305 85.9093 12.0459 85.4426 13.1633C84.976 14.2807 84.7364 15.4782 84.7374 16.6874V25.8977H88.4537V16.6874C88.4537 15.2246 89.0406 13.8218 90.0852 12.7876C91.1299 11.7533 92.5467 11.1722 94.0241 11.1722V7.47705H94.0321Z" fill="#87009B"/>
<path d="M104.25 7.13038C102.571 7.12931 100.922 7.57789 99.4796 8.42861C98.0368 9.27934 96.8533 10.5005 96.0544 11.9629C95.2555 13.4252 94.8709 15.0743 94.9414 16.7354C95.0119 18.3965 95.5348 20.0078 96.4547 21.3987C97.3747 22.7895 98.6574 23.9082 100.167 24.6361C101.677 25.3641 103.357 25.6743 105.03 25.5338C106.704 25.3933 108.307 24.8074 109.672 23.8381C111.036 22.8689 112.11 21.5523 112.781 20.028H108.428C107.783 20.75 106.96 21.2924 106.038 21.6012C105.116 21.9099 104.129 21.9743 103.174 21.7878C102.22 21.6013 101.331 21.1705 100.597 20.5383C99.8627 19.9061 99.3086 19.0945 98.9897 18.1843H113.377C113.506 17.5781 113.57 16.9602 113.568 16.3407C113.568 15.1298 113.327 13.9309 112.859 12.8124C112.39 11.6939 111.704 10.6779 110.838 9.82244C109.973 8.96698 108.945 8.28888 107.815 7.82695C106.684 7.36502 105.473 7.12831 104.25 7.13038ZM98.9818 14.4971C99.3589 13.4106 100.069 12.4679 101.014 11.8005C101.958 11.1331 103.089 10.7743 104.25 10.7743C105.41 10.7743 106.541 11.1331 107.486 11.8005C108.43 12.4679 109.141 13.4106 109.518 14.4971H98.9818Z" fill="#87009B"/>
<path d="M52.3573 7.46921C50.3493 7.47146 48.3957 8.11529 46.7869 9.30497V0.102539H43.0627V16.648C43.0616 17.7033 43.2447 18.7508 43.6038 19.7444C43.6913 19.9886 43.7868 20.225 43.8983 20.4613C44.0682 20.8306 44.2622 21.1885 44.4792 21.5328L44.8293 22.0528C45.0728 22.3878 45.3387 22.7063 45.6251 23.0062L45.7445 23.1322C46.4225 23.8107 47.2039 24.3797 48.0602 24.8183C48.6661 25.1365 49.3069 25.385 49.97 25.5589C50.7494 25.7611 51.5516 25.8644 52.3573 25.8662C52.7352 25.8667 53.1126 25.843 53.4873 25.7953C55.848 25.5206 58.013 24.3618 59.5378 22.5565C61.0627 20.7513 61.8318 18.4366 61.6872 16.0876C61.5426 13.7386 60.4953 11.5336 58.7603 9.925C57.0253 8.31645 54.7342 7.42645 52.3573 7.43769V7.46921ZM52.3573 22.2183C50.9609 22.2202 49.6147 21.7028 48.5854 20.7686C48.4348 20.634 48.2939 20.4892 48.1636 20.3353L47.9487 20.091C47.7857 19.8831 47.6369 19.6646 47.5031 19.4371C47.4474 19.3425 47.3917 19.2401 47.344 19.1377C47.2154 18.8845 47.1089 18.6209 47.0256 18.3498C46.8483 17.8106 46.7597 17.2466 46.763 16.6795V16.4589C46.816 15.3811 47.1871 14.3423 47.8305 13.4712C48.4739 12.6002 49.3612 11.9352 50.3826 11.5585C51.4039 11.1818 52.5145 11.1101 53.5766 11.3522C54.6388 11.5943 55.6058 12.1396 56.358 12.9205C57.1102 13.7014 57.6145 14.6837 57.8084 15.7456C58.0024 16.8075 57.8774 17.9023 57.449 18.8946C57.0205 19.8868 56.3075 20.7329 55.3983 21.3279C54.489 21.9228 53.4234 22.2407 52.3335 22.2419L52.3573 22.2183Z" fill="#87009B"/>
<path d="M31.508 25.8819C29.6691 25.885 27.8705 25.3479 26.3399 24.3387C24.8093 23.3294 23.6155 21.8933 22.9096 20.212C22.2036 18.5308 22.0173 16.68 22.3741 14.8938C22.731 13.1077 23.615 11.4665 24.9142 10.178C26.2134 8.8894 27.8696 8.01139 29.673 7.65503C31.4764 7.29868 33.3461 7.47999 35.0454 8.17604C36.7447 8.87208 38.1972 10.0516 39.2192 11.5652C40.2413 13.0789 40.7868 14.8587 40.7868 16.6795C40.7847 19.1167 39.8069 21.4538 38.0677 23.1787C36.3286 24.9036 33.9697 25.8756 31.508 25.8819ZM31.508 11.117C30.3969 11.117 29.3107 11.4433 28.3868 12.0545C27.4629 12.6657 26.7428 13.5344 26.3175 14.5508C25.8923 15.5672 25.7811 16.6856 25.9978 17.7646C26.2146 18.8436 26.7497 19.8348 27.5354 20.6127C28.3211 21.3906 29.3222 21.9204 30.412 22.135C31.5018 22.3496 32.6314 22.2395 33.658 21.8185C34.6846 21.3975 35.5621 20.6845 36.1794 19.7698C36.7967 18.855 37.1262 17.7796 37.1262 16.6795C37.1241 15.2049 36.5315 13.7912 35.4784 12.7485C34.4252 11.7058 32.9974 11.1191 31.508 11.117Z" fill="#87009B"/>
<g opacity="0.6">
<path d="M16.2928 16.6795C16.297 16.7398 16.297 16.8004 16.2928 16.8607H19.9693C19.9693 16.8055 19.9693 16.7425 19.9693 16.6795C19.9672 14.2395 18.9873 11.9 17.2447 10.1747C15.502 8.44935 13.1391 7.47914 10.6747 7.47705H10.6031V11.1092H10.6747C12.1654 11.1113 13.5944 11.699 14.6478 12.7435C15.7012 13.7879 16.2928 15.2035 16.2928 16.6795Z" fill="#87009B"/>
</g>
<path d="M16.2928 0.118164V16.6636C16.2932 17.6783 16.0133 18.6737 15.4833 19.5421C14.9534 20.4105 14.1936 21.1189 13.2862 21.5905C12.3789 22.0622 11.3585 22.2791 10.3356 22.2179C9.31265 22.1567 8.32612 21.8196 7.48277 21.2431C6.63943 20.6667 5.9714 19.8728 5.55099 18.9475C5.13059 18.0222 4.97382 17.0006 5.09766 15.9934C5.2215 14.9862 5.62123 14.0318 6.25358 13.2333C6.88594 12.4349 7.72682 11.8229 8.68522 11.4636V12.74C8.68545 12.8011 8.70406 12.8607 8.73868 12.9112C8.77329 12.9618 8.82235 13.001 8.87957 13.0238C8.93679 13.0467 8.99958 13.0521 9.05993 13.0394C9.12028 13.0267 9.17545 12.9966 9.21839 12.9527L12.4811 9.72241C12.5381 9.66606 12.5833 9.59913 12.6142 9.52545C12.6451 9.45177 12.661 9.37278 12.661 9.29301C12.661 9.21324 12.6451 9.13426 12.6142 9.06058C12.5833 8.9869 12.5381 8.91997 12.4811 8.86362L9.21839 5.62544C9.17498 5.58108 9.11907 5.5507 9.05797 5.53827C8.99686 5.52584 8.93338 5.53192 8.87582 5.55574C8.81826 5.57956 8.76929 5.61999 8.73529 5.67178C8.70129 5.72356 8.68384 5.78429 8.68522 5.84604V7.6818C6.97352 8.05315 5.40271 8.896 4.15398 10.1131C2.90525 11.3303 2.02947 12.8721 1.62767 14.5608C1.22586 16.2495 1.3144 18.0163 1.88306 19.6573C2.45172 21.2984 3.47735 22.7468 4.84163 23.8356C6.20591 24.9244 7.85327 25.6092 9.59369 25.8109C11.3341 26.0127 13.0967 25.7233 14.6781 24.976C16.2596 24.2287 17.5954 23.054 18.5316 21.5875C19.4678 20.1209 19.9662 18.4222 19.9693 16.6873V0.141801L16.2928 0.118164Z" fill="#87009B"/>
</g>
<defs>
<clipPath id="clip0_13_7237">
<rect width="113" height="26" fill="white" transform="translate(0.998047)"/>
</clipPath>
</defs>
</svg>
